<svg xmlns="http://www.w3.org/2000/svg" viewBox="0 0 721.99 192.89"><defs><style>.cls-1{fill:#34495e;}.cls-2{fill:#f88f33;}.cls-3{fill:#00b04b;}</style></defs><title>Logo_sin padding_1</title><g id="Capa_2" data-name="Capa 2"><g id="Capa_1-2" data-name="Capa 1"><path class="cls-1" d="M242.07,29.27a21.06,21.06,0,0,1,5.07-1.87,27.35,27.35,0,0,1,6.83-.88,24.55,24.55,0,0,1,8.69,1.42,7.62,7.62,0,0,1,4.87,4.48q1.77,5.1,3.83,11.89t4.13,14q2.07,7.23,4,14.25T283,85a8.16,8.16,0,0,1-3.54,2.21,17,17,0,0,1-5.6.83,17.32,17.32,0,0,1-4-.39,7,7,0,0,1-2.66-1.18,5.9,5.9,0,0,1-1.67-2.06,18.77,18.77,0,0,1-1.13-3l-1.77-6.78H244.83c-.53,2-1.05,4-1.58,6.09s-1.05,4.13-1.57,6.1a26.61,26.61,0,0,1-2.9.83,16.89,16.89,0,0,1-3.68.34q-5,0-7.42-1.72a5.51,5.51,0,0,1-2.41-4.76,10,10,0,0,1,.39-2.75c.26-.92.56-2,.89-3.25q.67-2.66,1.91-6.58t2.71-8.51q1.47-4.56,3.14-9.38L237.46,42q1.47-4.28,2.7-7.62C241,32.16,241.61,30.45,242.07,29.27ZM253.87,42q-1.38,4.13-3.1,9.19c-1.14,3.37-2.18,6.8-3.09,10.27h12.18q-1.38-5.31-2.8-10.37T254.46,42Z"/><path class="cls-1" d="M303.64,87.35a8.48,8.48,0,0,1-9.14-9.14V27.4c.72-.13,1.87-.31,3.44-.54a31.21,31.21,0,0,1,4.52-.34,20.44,20.44,0,0,1,4,.34,7.08,7.08,0,0,1,2.9,1.23,5.27,5.27,0,0,1,1.77,2.46,12.05,12.05,0,0,1,.59,4.13V73.5h22.5a12.52,12.52,0,0,1,1.28,2.9,12,12,0,0,1,.59,3.78q0,3.93-1.67,5.55A6.08,6.08,0,0,1,330,87.35Z"/><path class="cls-1" d="M339.64,57.18a35.74,35.74,0,0,1,2.41-13.56A27.36,27.36,0,0,1,358.46,27.7a37.39,37.39,0,0,1,24.48,0,28.41,28.41,0,0,1,9.87,6,27.89,27.89,0,0,1,6.64,9.88,35.74,35.74,0,0,1,2.41,13.56q0,9.63-3.54,16.37a27,27,0,0,1-9.63,10.56c1,.46,2.14,1,3.48,1.48s2.76,1,4.23,1.57,3,1,4.57,1.52,3,.94,4.42,1.33a5.92,5.92,0,0,1,.1,1v.84q0,5.59-2.9,8.15a11.05,11.05,0,0,1-7.61,2.56,20.19,20.19,0,0,1-9.34-2.51,44.49,44.49,0,0,1-9.83-7.22l-4.32-4h-.79a35.1,35.1,0,0,1-12.38-2.12,27.44,27.44,0,0,1-9.83-6.14A28.45,28.45,0,0,1,342,70.65,36.08,36.08,0,0,1,339.64,57.18Zm17.7,0q0,9,3.63,13.37a13,13,0,0,0,19.56,0q3.63-4.42,3.64-13.37t-3.59-13.26a11.93,11.93,0,0,0-9.78-4.43A12.15,12.15,0,0,0,361,43.87Q357.33,48.24,357.34,57.18Z"/><path class="cls-1" d="M464.67,65.05a25.06,25.06,0,0,1-1.82,9.68,20.61,20.61,0,0,1-5.26,7.46A23.67,23.67,0,0,1,449.24,87,37.79,37.79,0,0,1,427,87a23.59,23.59,0,0,1-8.35-4.77,20.49,20.49,0,0,1-5.26-7.46,25.06,25.06,0,0,1-1.82-9.68V27.5c.72-.13,1.87-.31,3.44-.54a31.31,31.31,0,0,1,4.52-.34,20.37,20.37,0,0,1,4,.34,7,7,0,0,1,2.9,1.23,5.27,5.27,0,0,1,1.77,2.46,11.81,11.81,0,0,1,.59,4.13v30a10.05,10.05,0,0,0,2.61,7.37,9.91,9.91,0,0,0,13.51,0,10.2,10.2,0,0,0,2.56-7.37V27.5c.72-.13,1.86-.31,3.44-.54a31.11,31.11,0,0,1,4.52-.34,20.51,20.51,0,0,1,4,.34,7.14,7.14,0,0,1,2.9,1.23,5.41,5.41,0,0,1,1.77,2.46,12.05,12.05,0,0,1,.59,4.13Z"/><path class="cls-1" d="M493.87,86.67a27.23,27.23,0,0,1-3.39.59,37.27,37.27,0,0,1-4.57.29,20.37,20.37,0,0,1-4-.34A7.08,7.08,0,0,1,479,86a5.27,5.27,0,0,1-1.77-2.46,12,12,0,0,1-.59-4.12V27.5c.72-.13,1.87-.31,3.44-.54a31.31,31.31,0,0,1,4.52-.34,20.37,20.37,0,0,1,4,.34,7,7,0,0,1,2.9,1.23,5.27,5.27,0,0,1,1.77,2.46,12.05,12.05,0,0,1,.59,4.13Z"/><path class="cls-1" d="M515.45,87.35a8.48,8.48,0,0,1-9.14-9.14V27.4c.72-.13,1.87-.31,3.44-.54a31.31,31.31,0,0,1,4.52-.34,20.37,20.37,0,0,1,4,.34,7,7,0,0,1,2.9,1.23,5.27,5.27,0,0,1,1.77,2.46,12.05,12.05,0,0,1,.59,4.13V73.5H546a12.54,12.54,0,0,1,1.27,2.9,12,12,0,0,1,.59,3.78c0,2.62-.55,4.47-1.67,5.55a6.08,6.08,0,0,1-4.42,1.62Z"/><path class="cls-1" d="M577.31,29.27a21,21,0,0,1,5.06-1.87,27.41,27.41,0,0,1,6.83-.88,24.61,24.61,0,0,1,8.7,1.42,7.6,7.6,0,0,1,4.86,4.48q1.77,5.1,3.83,11.89t4.13,14q2.07,7.23,4,14.25T618.19,85a8.1,8.1,0,0,1-3.54,2.21,17,17,0,0,1-5.6.83,17.32,17.32,0,0,1-4-.39,7,7,0,0,1-2.65-1.18,5.69,5.69,0,0,1-1.67-2.06,17,17,0,0,1-1.13-3l-1.77-6.78H580.06c-.53,2-1,4-1.57,6.09s-1,4.13-1.58,6.1a26.42,26.42,0,0,1-2.89.83,17,17,0,0,1-3.69.34c-3.34,0-5.82-.57-7.42-1.72a5.51,5.51,0,0,1-2.41-4.76,10,10,0,0,1,.39-2.75c.26-.92.56-2,.89-3.25q.69-2.66,1.91-6.58c.82-2.62,1.73-5.46,2.71-8.51s2-6.17,3.14-9.38,2.17-6.24,3.15-9.09,1.88-5.39,2.7-7.62S576.85,30.45,577.31,29.27ZM589.1,42q-1.38,4.13-3.1,9.19c-1.14,3.37-2.18,6.8-3.09,10.27H595.1Q593.72,56.1,592.29,51c-.95-3.37-1.81-6.4-2.6-9.09Z"/><path class="cls-1" d="M221.66,131.92a12.44,12.44,0,0,1-1.28-2.95,13,13,0,0,1-.59-3.93c0-2.55.57-4.39,1.72-5.5a6.17,6.17,0,0,1,4.47-1.67h42.85a12.44,12.44,0,0,1,1.28,2.95,13,13,0,0,1,.59,3.93c0,2.55-.57,4.39-1.72,5.5a6.13,6.13,0,0,1-4.47,1.67H253.6v45.41a27.23,27.23,0,0,1-3.39.59,37.39,37.39,0,0,1-4.57.29,20.37,20.37,0,0,1-4-.34,7.08,7.08,0,0,1-2.9-1.23,5.27,5.27,0,0,1-1.77-2.46,12,12,0,0,1-.59-4.13V131.92Z"/><path class="cls-1" d="M332,155.71a24.88,24.88,0,0,1-1.82,9.68,20.47,20.47,0,0,1-5.25,7.46,23.63,23.63,0,0,1-8.36,4.77,37.76,37.76,0,0,1-22.21,0,23.5,23.5,0,0,1-8.35-4.77,20.37,20.37,0,0,1-5.26-7.46,25.06,25.06,0,0,1-1.82-9.68V118.16c.72-.13,1.87-.31,3.44-.54a31.21,31.21,0,0,1,4.52-.34,20.37,20.37,0,0,1,4,.34,7,7,0,0,1,2.9,1.23,5.27,5.27,0,0,1,1.77,2.46,12.05,12.05,0,0,1,.59,4.13v30a10.09,10.09,0,0,0,2.6,7.37,9.92,9.92,0,0,0,13.52,0,10.19,10.19,0,0,0,2.55-7.37V118.16c.72-.13,1.87-.31,3.44-.54a31.34,31.34,0,0,1,4.53-.34,20.51,20.51,0,0,1,4,.34,7,7,0,0,1,2.89,1.23,5.27,5.27,0,0,1,1.77,2.46,11.81,11.81,0,0,1,.59,4.13Z"/><path class="cls-1" d="M391.66,130.15q-7.57,0-11.6,4.62t-4,13.07q0,8.55,4.47,13.17t12,4.62a19,19,0,0,0,6.83-1.08,48.42,48.42,0,0,0,5.36-2.45,9.66,9.66,0,0,1,2.6,3.29,10,10,0,0,1,.94,4.47q0,4-4.47,6.83c-3,1.87-7.52,2.8-13.62,2.8a40,40,0,0,1-12.38-1.87,27.47,27.47,0,0,1-10.12-5.75,27,27,0,0,1-6.83-9.83,36.42,36.42,0,0,1-2.51-14.2,35.18,35.18,0,0,1,2.41-13.51,28.71,28.71,0,0,1,6.58-9.88,27.8,27.8,0,0,1,9.78-6.09,34.33,34.33,0,0,1,12-2.07q9,0,14,2.95t5,7.57a7.62,7.62,0,0,1-1.28,4.42,10.45,10.45,0,0,1-2.94,3,32.87,32.87,0,0,0-5.46-2.85A17.7,17.7,0,0,0,391.66,130.15Z"/><path class="cls-1" d="M436.13,119.93a21.06,21.06,0,0,1,5.07-1.87,27.35,27.35,0,0,1,6.83-.88,24.55,24.55,0,0,1,8.69,1.42,7.62,7.62,0,0,1,4.87,4.48q1.77,5.1,3.83,11.89t4.13,14q2.07,7.23,4,14.25T477,175.66a8.16,8.16,0,0,1-3.54,2.21,17,17,0,0,1-5.6.83,17.32,17.32,0,0,1-4-.39,7,7,0,0,1-2.66-1.18,5.9,5.9,0,0,1-1.67-2.06,18.77,18.77,0,0,1-1.13-2.95l-1.77-6.78H438.89c-.53,2-1.05,4-1.58,6.09s-1.05,4.13-1.57,6.1a26.61,26.61,0,0,1-2.9.83,16.89,16.89,0,0,1-3.68.34q-5,0-7.42-1.72a5.51,5.51,0,0,1-2.41-4.76,10,10,0,0,1,.39-2.75c.26-.92.56-2,.89-3.25q.67-2.66,1.91-6.58t2.71-8.51q1.47-4.56,3.14-9.38l3.15-9.09q1.47-4.28,2.7-7.62C435,122.82,435.67,121.11,436.13,119.93Zm11.8,12.68q-1.38,4.13-3.1,9.19c-1.14,3.37-2.18,6.8-3.09,10.27h12.18q-1.38-5.31-2.8-10.37t-2.6-9.09Z"/><path class="cls-1" d="M534.31,175.66a8.93,8.93,0,0,1-4,2.11,23.21,23.21,0,0,1-6.24.74,21.65,21.65,0,0,1-6.88-1.08q-3.24-1.08-5.3-5.21l-9.74-19.86c-1-2-1.86-3.94-2.65-5.75s-1.64-3.88-2.55-6.24l-.59.1c.26,3.54.41,7.15.44,10.81s.05,7.28.05,10.82v15.23a27.38,27.38,0,0,1-3.29.59,34.39,34.39,0,0,1-4.38.29,22.89,22.89,0,0,1-3.83-.29,5.86,5.86,0,0,1-2.75-1.18,5.64,5.64,0,0,1-1.67-2.41,11,11,0,0,1-.59-4V121.21a8.21,8.21,0,0,1,4.22-2.95,18.71,18.71,0,0,1,6.1-1,21,21,0,0,1,6.92,1.13,9.34,9.34,0,0,1,5.26,5.16l9.83,19.85c1,2,1.87,4,2.65,5.75s1.64,3.88,2.56,6.24l.49-.1c-.26-3.54-.43-7.07-.49-10.61s-.1-7.08-.1-10.62V118.16a27.38,27.38,0,0,1,3.29-.59,34.39,34.39,0,0,1,4.38-.29,11.87,11.87,0,0,1,6.59,1.52q2.25,1.53,2.25,6.34Z"/><path class="cls-1" d="M576.25,130.15q-7.57,0-11.6,4.62t-4,13.07q0,8.55,4.47,13.17t12,4.62a19,19,0,0,0,6.83-1.08,48.42,48.42,0,0,0,5.36-2.45,9.66,9.66,0,0,1,2.6,3.29,10,10,0,0,1,.94,4.47q0,4-4.48,6.83t-13.61,2.8a40,40,0,0,1-12.38-1.87,27.47,27.47,0,0,1-10.12-5.75,27,27,0,0,1-6.83-9.83,36.24,36.24,0,0,1-2.51-14.2,35.18,35.18,0,0,1,2.41-13.51,28.71,28.71,0,0,1,6.58-9.88,27.8,27.8,0,0,1,9.78-6.09,34.33,34.33,0,0,1,12-2.07q9,0,14,2.95t5,7.57a7.62,7.62,0,0,1-1.28,4.42,10.35,10.35,0,0,1-3,3,32.39,32.39,0,0,0-5.45-2.85A17.73,17.73,0,0,0,576.25,130.15Z"/><path class="cls-1" d="M656.34,177.33a27.23,27.23,0,0,1-3.39.59,37.27,37.27,0,0,1-4.57.29,20.44,20.44,0,0,1-4-.34,7.08,7.08,0,0,1-2.9-1.23,5.41,5.41,0,0,1-1.77-2.46,12,12,0,0,1-.59-4.13V154.72H620.27v22.61a27.23,27.23,0,0,1-3.39.59,37.27,37.27,0,0,1-4.57.29,20.44,20.44,0,0,1-4-.34,7.14,7.14,0,0,1-2.9-1.23,5.41,5.41,0,0,1-1.77-2.46,12,12,0,0,1-.58-4.13V118.16c.71-.13,1.86-.31,3.43-.54a31.31,31.31,0,0,1,4.52-.34,20.37,20.37,0,0,1,4,.34,7.13,7.13,0,0,1,2.91,1.23,5.32,5.32,0,0,1,1.76,2.46,11.81,11.81,0,0,1,.59,4.13v15.72h18.87v-23c.72-.13,1.87-.31,3.44-.54a31.31,31.31,0,0,1,4.52-.34,20.55,20.55,0,0,1,4,.34,7,7,0,0,1,2.89,1.23,5.27,5.27,0,0,1,1.77,2.46,11.81,11.81,0,0,1,.59,4.13Z"/><path class="cls-1" d="M681.11,119.93a21,21,0,0,1,5.06-1.87,27.41,27.41,0,0,1,6.83-.88,24.61,24.61,0,0,1,8.7,1.42,7.6,7.6,0,0,1,4.86,4.48q1.77,5.1,3.83,11.89t4.13,14q2.07,7.23,4,14.25T722,175.66a8.1,8.1,0,0,1-3.54,2.21,17,17,0,0,1-5.6.83,17.32,17.32,0,0,1-4-.39,7,7,0,0,1-2.65-1.18,5.69,5.69,0,0,1-1.67-2.06,17,17,0,0,1-1.13-2.95l-1.77-6.78H683.86c-.53,2-1.05,4-1.57,6.09s-1,4.13-1.58,6.1a26.42,26.42,0,0,1-2.89.83,17,17,0,0,1-3.69.34c-3.34,0-5.82-.57-7.42-1.72a5.51,5.51,0,0,1-2.41-4.76,10,10,0,0,1,.39-2.75c.26-.92.56-2,.89-3.25q.69-2.66,1.92-6.58c.81-2.62,1.72-5.46,2.7-8.51s2-6.17,3.14-9.38,2.17-6.24,3.15-9.09,1.88-5.39,2.7-7.62S680.65,121.11,681.11,119.93Zm11.79,12.68q-1.38,4.13-3.1,9.19c-1.14,3.37-2.18,6.8-3.09,10.27H698.9q-1.38-5.31-2.81-10.37c-1-3.37-1.81-6.4-2.6-9.09Z"/><circle class="cls-2" cx="164.53" cy="47.83" r="16.16"/><path class="cls-3" d="M118.8,51.18q-3.42-9.37-10-14.45a24.56,24.56,0,0,0-29.89,0Q72.42,41.8,69,51.18L44.42,119.4a31,31,0,0,0-1.88,9.54,16.64,16.64,0,0,0,2.61,9.27,17.5,17.5,0,0,0,7.44,6.26,15.84,15.84,0,0,0,6.85,1.58,14.42,14.42,0,0,0,9.32-3.45,19.33,19.33,0,0,0,6.11-9.31l.5-1.45.44-1.43,34-7.14,2.63,8.57.45,1.45a19.75,19.75,0,0,0,6.25,9.38,14.43,14.43,0,0,0,9.19,3.38,15.76,15.76,0,0,0,6.84-1.58,17.38,17.38,0,0,0,7.44-6.26,16.57,16.57,0,0,0,2.62-9.27,33.29,33.29,0,0,0-1.89-9.54l-1.06-2.94,29-6.09c8.38-1.75,15.16-10.36,15.16-19.23s-6.78-14.64-15.16-12.88l-39.75,8.33ZM86.33,96.08l1-3.24,6.54-25.37,6.23,23.94.51,1.68Z"/><path class="cls-3" d="M177.27,123.41l-3,.39a7.64,7.64,0,0,0-6,4.49A78.74,78.74,0,1,1,136.84,29a7,7,0,0,0,7.48-.11l4.23-2.77a7,7,0,0,0-.14-11.81C134.81,5.85,117.37,1,101.73.15A96.45,96.45,0,0,0,0,95.74c-.43,50,38.2,92.43,88,96.78A96.43,96.43,0,0,0,185.27,134,7.63,7.63,0,0,0,177.27,123.41Z"/></g></g></svg>